<?xml version="1.0" encoding="UTF-8" standalone="no" ?>
<!DOCTYPE svg PUBLIC "-//W3C//DTD SVG 1.1//EN" "http://www.w3.org/Graphics/SVG/1.1/DTD/svg11.dtd">
<svg xmlns="http://www.w3.org/2000/svg" xmlns:xlink="http://www.w3.org/1999/xlink" version="1.1" width="114.4370892712875" height="114.4370892712875" viewBox="387.8145679471377 138.80795644608838 114.4370892712875 114.4370892712875" xml:space="preserve">
<desc>Created with Fabric.js 4.6.0</desc>
<defs>
</defs>
<g transform="matrix(1 0 0 1 445.03 196.03)" id="wkbfPnnTym5hEqJ7CZN5p"  >
<path style="stroke: rgb(197,136,191); stroke-width: 0; stroke-dasharray: none; stroke-linecap: butt; stroke-dashoffset: 0; stroke-linejoin: miter; stroke-miterlimit: 4; fill: rgb(0,0,0); fill-rule: nonzero; opacity: 1;" vector-effect="non-scaling-stroke"  transform=" translate(-57.22, -57.22)" d="M 0 0 L 114.43709 0 L 114.43709 114.43709 L 0 114.43709 z" stroke-linecap="round" />
</g>
<g transform="matrix(0.76 0 0 0.76 445.03 196.03)" id="1wAKNC2186_PFhSDOOitd"  >
<path style="stroke: rgb(255,255,255); stroke-width: 8; stroke-dasharray: none; stroke-linecap: butt; stroke-dashoffset: 0; stroke-linejoin: miter; stroke-miterlimit: 4; fill: rgb(0,0,0); fill-rule: nonzero; opacity: 1;" vector-effect="non-scaling-stroke"  transform=" translate(0, 0)" d="M 0 -58.01325 C 32.02331 -58.01325 58.01325 -32.02332 58.01325 0 C 58.01325 32.02331 32.02332 58.01325 0 58.01325 C -32.02331 58.01325 -58.01325 32.02332 -58.01325 0 C -58.01325 -32.02331 -32.02332 -58.01325 0 -58.01325 z" stroke-linecap="round" />
</g>
<g transform="matrix(0.63 0 0 0.63 414.27 226.79)" id="EoCY1mREMFnaAqx8djbdM"  >
<path style="stroke: rgb(255,255,255); stroke-width: 4; stroke-dasharray: none; stroke-linecap: butt; stroke-dashoffset: 0; stroke-linejoin: miter; stroke-miterlimit: 4; fill: rgb(0,0,0); fill-rule: nonzero; opacity: 1;" vector-effect="non-scaling-stroke"  transform=" translate(0, 0)" d="M 0 -24.37086 C 13.45272 -24.37086 24.37086 -13.45271 24.37086 0 C 24.37086 13.45272 13.45271 24.37086 0 24.37086 C -13.45272 24.37086 -24.37086 13.45271 -24.37086 0 C -24.37086 -13.45272 -13.45271 -24.37086 0 -24.37086 z" stroke-linecap="round" />
</g>
</svg>